<?xml version="1.0" standalone="no"?>
<!DOCTYPE svg PUBLIC "-//W3C//DTD SVG 20010904//EN"
 "http://www.w3.org/TR/2001/REC-SVG-20010904/DTD/svg10.dtd">
<svg version="1.0" xmlns="http://www.w3.org/2000/svg"
 width="900.000000pt" height="940.000000pt" viewBox="0 0 900.000000 940.000000"
 preserveAspectRatio="xMidYMid meet">

<g transform="translate(0.000000,940.000000) scale(0.100000,-0.100000)"
fill="#000000" stroke="none">
<path d="M4971 8944 c-162 -27 -349 -101 -499 -198 -138 -88 -331 -267 -371
-344 -16 -30 -17 -98 -1 -117 16 -20 73 -19 113 1 18 9 59 38 92 64 168 132
400 255 550 291 65 15 113 20 173 17 82 -3 84 -4 118 -40 61 -67 54 -74 -133
-137 -296 -100 -589 -233 -795 -362 -247 -155 -453 -346 -506 -470 -73 -169
-80 -458 -17 -674 87 -298 292 -524 580 -640 l99 -40 -235 -7 c-738 -20 -1306
-146 -1821 -404 -267 -133 -481 -287 -683 -489 -483 -483 -730 -1136 -651
-1725 95 -705 464 -1182 1083 -1400 528 -186 1267 -161 1643 57 3 2 17 -21 33
-50 42 -79 124 -174 202 -234 151 -115 309 -166 510 -166 145 0 253 19 418 75
102 35 135 42 204 42 112 1 128 -10 173 -124 56 -141 177 -273 303 -333 102
-48 256 -173 427 -347 156 -158 202 -190 310 -210 202 -39 534 136 569 300 16
75 14 166 -6 207 -10 21 -60 72 -129 129 -61 52 -119 105 -127 118 -9 13 -25
61 -37 106 -56 219 -163 411 -292 524 -97 85 -236 136 -372 136 -100 0 -135
23 -207 135 l-58 90 182 7 c287 10 484 45 762 135 323 105 478 222 635 478
191 312 220 689 75 994 -88 184 -280 373 -544 534 l-84 52 64 8 c345 42 548
100 735 210 119 70 264 212 328 322 88 151 134 353 123 532 -8 124 -21 170
-79 293 -200 425 -571 722 -1029 824 -277 61 -503 61 -809 1 -447 -89 -805
-104 -1037 -44 -92 23 -210 78 -310 143 l-73 47 0 63 c0 156 72 313 209 458
161 170 379 306 685 427 149 59 215 99 279 170 57 64 82 138 73 209 -14 100
-98 225 -191 284 -114 73 -435 109 -654 72z m551 -53 c75 -20 149 -70 172
-115 33 -66 -30 -157 -174 -251 -121 -79 -368 -191 -499 -226 -193 -52 -425
-189 -637 -376 -63 -55 -77 -63 -112 -63 -32 0 -45 6 -61 26 l-20 25 -29 -21
c-41 -30 -105 -117 -99 -134 3 -7 -1 -26 -9 -41 -35 -67 -54 -158 -54 -255 0
-135 13 -193 57 -258 31 -45 38 -63 41 -118 4 -56 6 -62 17 -47 13 17 14 17
34 -1 12 -11 21 -26 21 -35 1 -14 2 -13 11 2 13 22 90 61 149 77 48 12 170 70
170 80 0 3 -8 15 -17 26 -131 144 -156 220 -117 343 16 49 78 127 117 148 17
9 17 11 -7 26 -16 11 -28 30 -32 52 -15 80 105 241 199 266 22 6 67 15 100 20
156 25 456 152 502 213 14 18 25 38 25 44 0 6 22 33 48 60 62 63 135 92 235
92 40 0 89 5 110 11 46 12 99 64 114 110 11 34 11 34 12 -19 3 -133 -96 -228
-334 -322 -257 -102 -463 -221 -622 -359 -46 -40 -83 -75 -83 -79 0 -4 -20
-27 -43 -52 -52 -56 -120 -183 -141 -266 -9 -34 -16 -98 -16 -141 0 -91 2 -95
105 -155 229 -136 408 -177 715 -165 190 8 346 27 589 73 252 48 391 59 563
45 136 -11 286 -36 301 -50 4 -4 -1 -14 -10 -23 -60 -52 -265 -72 -442 -44
-171 27 -220 23 -471 -40 l-225 -57 -200 -1 c-164 -1 -212 2 -265 17 -36 10
-83 20 -105 23 -22 3 -80 16 -130 29 -49 13 -121 29 -160 36 -38 6 -94 22
-124 35 -46 21 -52 22 -46 6 4 -9 10 -38 13 -65 9 -87 85 -122 200 -93 163 43
335 -5 361 -99 15 -57 -3 -87 -111 -187 -131 -120 -226 -220 -267 -281 l-33
-48 -89 3 c-49 2 -89 0 -89 -3 0 -4 44 -9 98 -12 53 -3 135 -11 182 -17 47 -5
94 -11 105 -13 18 -2 20 3 17 48 -10 148 118 292 375 423 65 34 133 72 152 86
65 49 166 29 238 -46 73 -76 63 -120 -46 -217 -70 -62 -101 -110 -101 -157 0
-13 5 -24 10 -24 6 0 10 10 10 23 0 30 28 70 115 165 52 57 124 97 156 87 37
-12 20 -53 -51 -130 -66 -71 -110 -137 -110 -164 1 -21 7 -14 30 33 33 67 82
120 185 204 83 67 81 65 122 167 18 43 42 87 55 97 49 38 282 108 360 108 76
0 128 -50 128 -122 0 -28 -29 -92 -49 -108 -3 -3 -12 -12 -18 -21 -11 -13 -9
-15 17 -11 57 8 100 -7 145 -53 55 -54 75 -103 78 -181 2 -57 -1 -66 -37 -119
-23 -32 -63 -72 -93 -93 -30 -21 -100 -70 -155 -110 -55 -41 -119 -82 -142
-92 -85 -36 -146 -37 -146 -2 0 28 60 165 82 189 l21 23 -34 0 c-31 0 -34 -3
-35 -31 -1 -18 -18 -54 -43 -89 -22 -33 -41 -65 -41 -72 0 -28 -32 -58 -72
-69 -52 -14 -132 0 -236 42 -84 33 -123 36 -178 13 -29 -12 -57 -15 -109 -11
l-70 5 47 -14 c26 -8 60 -27 76 -44 56 -55 50 -126 -18 -228 -50 -74 -67 -141
-51 -200 10 -34 29 -60 93 -120 87 -83 135 -146 154 -201 12 -35 34 -54 34
-29 0 39 -55 120 -134 198 -92 91 -99 108 -73 173 37 86 117 139 238 156 95
13 307 -2 413 -28 91 -23 111 -21 281 34 115 37 229 53 255 36 8 -5 12 -12 10
-14 -3 -2 -45 -30 -93 -62 -124 -81 -178 -95 -362 -98 -177 -3 -243 -20 -310
-79 -49 -43 -78 -113 -79 -188 0 -49 41 -161 61 -168 9 -2 9 6 -2 33 -21 49
-23 190 -3 235 23 53 64 96 116 122 44 22 58 23 242 23 l195 0 73 34 c52 25
87 50 123 89 60 66 73 90 88 164 22 104 128 187 313 244 45 14 54 20 43 28
-30 24 -22 86 18 127 27 29 57 78 57 94 0 12 -59 2 -127 -21 -133 -46 -225
-17 -280 89 -23 44 -27 65 -28 132 0 68 3 85 24 113 31 44 55 52 164 52 100 0
111 4 120 38 4 19 2 22 -11 16 -9 -3 -36 -10 -60 -14 -37 -6 -47 -3 -77 19
-39 30 -42 41 -18 82 26 44 107 65 133 34 15 -18 51 -20 67 -4 26 26 270 -185
377 -325 42 -54 62 -93 85 -166 17 -52 31 -110 31 -127 0 -30 -3 -33 -31 -33
-40 0 -172 45 -227 77 -24 13 -46 22 -49 19 -8 -8 151 -82 236 -110 l66 -23 3
-68 c4 -99 0 -102 -55 -47 -31 31 -66 55 -98 65 -61 21 -202 23 -229 2 -16
-12 -7 -13 71 -8 77 5 94 3 128 -15 90 -46 149 -137 165 -254 12 -84 11 -81
53 -212 l31 -99 -34 -61 c-91 -167 -283 -346 -370 -346 -25 0 -31 -3 -21 -9
11 -7 0 -16 -45 -36 -83 -38 -133 -55 -172 -60 -19 -2 -41 -10 -50 -17 -13
-11 -14 -11 -8 1 7 11 -1 12 -45 6 -30 -4 -72 -13 -93 -21 -45 -15 -60 -10
-53 17 6 22 6 22 -75 -33 -32 -21 -58 -34 -58 -28 0 5 -5 10 -11 10 -5 0 -7
-5 -3 -12 5 -8 2 -9 -12 -3 -10 5 -48 9 -84 10 -36 1 -69 3 -75 5 -5 1 -17 2
-25 1 -13 -1 -13 -3 -1 -10 8 -5 20 -7 27 -4 13 5 14 -14 1 -34 -5 -8 24 -30
85 -66 120 -71 241 -157 327 -235 76 -68 191 -205 191 -228 0 -8 4 -14 9 -14
18 0 81 -145 106 -245 21 -81 26 -124 26 -230 0 -143 -6 -184 -52 -325 -51
-155 -143 -314 -250 -434 -16 -18 -42 65 -35 112 7 53 -12 99 -54 130 -17 13
-33 37 -39 60 -16 58 -5 92 73 227 13 22 26 56 30 75 4 26 -7 11 -44 -59 -86
-162 -98 -223 -55 -282 78 -108 55 -117 -71 -30 -157 109 -149 100 -147 168 2
74 37 155 89 206 21 22 75 57 119 78 44 22 92 53 107 70 25 27 28 38 28 103 0
112 -7 136 -46 152 -19 8 -57 19 -86 25 -73 16 -125 44 -142 77 -17 32 -22
103 -12 150 9 37 79 97 126 107 33 7 50 25 25 25 -34 0 -166 83 -210 132 -48
53 -107 151 -126 209 -7 19 -18 41 -25 49 -12 12 -14 11 -14 -11 0 -13 6 -33
14 -44 7 -11 16 -37 19 -57 7 -43 -1 -48 -76 -48 -67 0 -124 29 -181 90 l-44
50 5 -74 c8 -110 0 -137 -66 -214 -169 -197 -249 -376 -222 -501 6 -28 20 -70
32 -93 11 -22 17 -44 12 -47 -4 -4 -55 -18 -113 -30 -58 -13 -144 -36 -192
-51 -49 -15 -88 -24 -88 -20 0 4 7 27 15 50 38 107 6 200 -109 319 -40 42 -78
86 -85 98 -15 30 -14 97 3 138 l15 35 -31 0 c-64 0 -120 -94 -133 -225 -7 -72
9 -55 19 20 4 28 12 65 17 82 11 34 62 79 78 68 6 -3 7 -27 4 -53 -7 -66 27
-131 106 -200 34 -30 71 -72 82 -95 30 -58 36 -145 14 -203 -16 -42 -23 -49
-82 -75 -36 -16 -66 -29 -68 -29 -8 0 -77 124 -94 171 -21 54 -41 91 -41 76 0
-20 63 -168 90 -210 l30 -47 -48 -24 c-26 -14 -60 -34 -76 -45 -17 -11 -34
-17 -39 -14 -5 3 -4 -4 2 -14 14 -27 56 -33 247 -33 378 0 641 47 738 133 28
25 45 55 75 136 22 57 47 111 56 120 16 15 17 12 10 -41 -3 -32 -2 -74 5 -97
9 -35 8 -48 -11 -91 -19 -45 -39 -65 -39 -40 0 28 -17 3 -34 -51 -21 -69 -56
-102 -132 -125 -62 -18 -241 -18 -321 1 -69 16 -96 11 -128 -25 -55 -61 -136
-67 -242 -16 -52 25 -95 37 -162 45 -82 10 -172 36 -210 60 -8 5 -31 3 -59 -5
-57 -18 -150 -18 -191 -1 -32 14 -95 11 -86 -3 18 -30 -76 -246 -128 -294 -21
-20 -25 -27 -12 -22 11 4 45 12 75 17 101 17 95 14 113 79 11 39 29 74 51 98
l35 37 88 0 c48 0 118 7 154 14 75 16 138 5 184 -31 38 -29 35 -90 -5 -130
-17 -17 -29 -32 -27 -34 2 -2 33 17 69 42 76 53 107 54 135 5 16 -27 18 -27
43 -13 35 20 66 11 127 -39 63 -51 105 -109 127 -175 16 -50 41 -80 135 -169
24 -22 54 -60 66 -85 16 -30 24 -38 24 -25 1 29 -26 66 -112 154 -71 74 -76
83 -107 177 -17 54 -38 107 -46 118 -8 11 -14 37 -14 58 0 44 22 59 122 83 71
17 238 20 238 5 0 -5 16 2 36 15 42 28 140 61 212 71 33 4 59 1 85 -9 39 -17
52 -38 62 -98 8 -51 37 -73 148 -110 111 -36 199 -88 239 -142 33 -43 43 -67
52 -127 6 -42 4 -46 -24 -65 -17 -11 -36 -19 -41 -17 -6 1 -8 -2 -5 -7 3 -5
-5 -16 -19 -25 -34 -22 -43 -20 -15 4 13 11 18 20 12 20 -6 0 -13 -4 -17 -10
-3 -5 -13 -6 -22 -3 -10 4 -14 2 -10 -4 4 -6 0 -14 -9 -17 -9 -3 -14 -13 -11
-20 4 -10 -5 -18 -25 -25 -40 -14 -61 -14 -52 0 5 8 1 8 -13 0 -11 -6 -24 -7
-28 -3 -5 4 -4 1 0 -7 6 -11 4 -13 -8 -8 -10 3 -17 2 -17 -4 0 -6 -5 -7 -10
-4 -6 4 -19 3 -28 -1 -9 -4 -19 -8 -22 -9 -64 -19 -85 -23 -93 -18 -6 4 -7 1
-2 -7 6 -10 4 -12 -7 -7 -9 3 -35 -1 -59 -10 -24 -8 -93 -23 -153 -33 l-108
-17 -14 33 c-19 44 -18 156 1 201 8 20 33 55 55 79 44 48 45 50 30 89 -7 18
-27 34 -65 51 -30 14 -68 42 -85 62 -18 21 -28 28 -24 17 15 -41 45 -73 83
-89 25 -9 46 -27 55 -45 15 -28 14 -31 -23 -82 -44 -63 -66 -141 -58 -209 3
-26 3 -57 0 -69 -7 -29 -49 -28 -64 1 l-12 23 -9 -27 c-12 -34 -66 -51 -148
-49 -74 2 -88 5 -140 29 -33 16 -65 22 -118 22 -40 0 -82 5 -94 11 -11 6 -33
39 -49 72 -21 47 -28 56 -29 36 0 -14 11 -40 25 -59 29 -40 32 -60 7 -60 -27
0 -50 34 -45 64 4 21 -6 37 -61 93 -62 65 -66 67 -66 40 0 -18 13 -42 38 -70
21 -23 45 -52 54 -64 19 -29 12 -83 -11 -83 -9 0 7 -12 34 -26 55 -29 111 -78
112 -97 0 -7 33 -60 72 -119 92 -139 121 -157 253 -163 168 -8 292 -65 399
-183 100 -112 170 -255 236 -487 18 -66 36 -128 39 -138 3 -10 26 -41 51 -69
25 -28 42 -56 39 -64 -3 -8 -1 -14 3 -14 30 0 9 61 -39 113 -47 50 -13 31 79
-43 58 -48 105 -94 115 -114 19 -40 21 -104 5 -176 -12 -57 -33 -76 -101 -92
-27 -6 -58 -24 -88 -52 -57 -54 -144 -95 -235 -111 -38 -7 -56 -14 -40 -14 79
-2 239 65 294 123 23 24 117 64 127 53 9 -8 -89 -88 -151 -122 -33 -19 -92
-46 -130 -61 -62 -23 -81 -25 -165 -22 -145 5 -180 26 -365 213 -183 185 -298
278 -428 347 -75 39 -111 66 -155 113 -63 69 -142 208 -142 249 0 31 68 179
113 246 64 96 120 140 177 140 37 0 60 -33 91 -134 31 -105 75 -185 111 -204
17 -9 65 -39 107 -66 49 -31 68 -40 53 -24 -12 13 -19 28 -15 33 5 4 3 6 -2 2
-7 -3 -12 15 -14 51 -1 31 -3 66 -4 77 -3 60 5 97 23 115 11 11 20 23 20 28 1
4 11 20 24 35 18 22 34 29 75 34 37 4 57 1 69 -9 9 -8 49 -29 87 -48 39 -18
73 -38 77 -44 12 -18 9 2 -6 37 -25 60 -190 209 -267 241 -18 8 -50 11 -75 8
-86 -9 -196 49 -233 124 -13 27 -31 57 -40 68 -23 26 -136 98 -203 128 -45 21
-61 35 -75 65 -20 41 -40 50 -125 52 -53 1 -59 -6 -27 -35 12 -10 32 -38 46
-61 20 -35 23 -50 18 -87 -9 -59 7 -66 78 -37 114 48 168 38 207 -39 19 -38
62 -70 94 -70 25 0 45 -28 40 -57 -19 -106 -113 -172 -275 -196 -69 -10 -82
-9 -143 11 -65 22 -96 27 -96 17 0 -3 13 -23 28 -44 23 -31 32 -37 45 -29 10
5 32 8 49 6 23 -2 34 -9 40 -29 7 -20 1 -37 -28 -87 -20 -34 -41 -62 -45 -62
-4 0 -16 13 -25 29 -15 25 -25 30 -88 39 -62 9 -83 7 -166 -13 -52 -13 -131
-31 -175 -40 -44 -10 -95 -22 -113 -27 -45 -14 -52 -5 -64 86 -6 41 -14 73
-18 71 -4 -2 -5 -38 -2 -79 6 -95 2 -98 -155 -94 -129 3 -142 10 -98 54 39 39
58 94 32 94 -7 0 -20 -22 -29 -48 -24 -66 -77 -97 -163 -95 -47 2 -56 0 -41
-9 30 -17 0 -28 -76 -28 -62 0 -69 3 -115 38 -157 125 -252 277 -274 439 -6
51 -14 93 -16 93 -2 0 -10 -6 -18 -13 -14 -15 -10 -47 25 -165 l18 -63 -21
-14 c-78 -50 -245 -102 -442 -136 -129 -23 -585 -40 -585 -23 0 5 20 20 45 33
43 23 145 120 145 139 0 5 -8 16 -17 23 -15 12 -16 12 -11 -8 7 -28 -34 -68
-142 -138 l-74 -47 -86 11 c-215 30 -461 101 -627 183 -309 150 -563 405 -707
709 -25 53 -46 99 -46 102 0 3 18 12 40 21 49 19 53 28 6 14 -19 -6 -41 -8
-48 -5 -15 5 -56 130 -87 267 -27 117 -51 315 -51 420 0 82 2 90 30 126 17 22
43 49 58 62 l27 24 -32 -16 c-17 -9 -41 -28 -52 -42 -25 -32 -26 -23 -11 76
23 144 30 170 50 170 10 0 22 5 26 11 4 8 0 9 -15 4 -28 -9 -28 10 4 116 73
243 193 479 357 702 50 67 68 81 68 51 0 -9 10 -34 22 -55 31 -56 75 -68 148
-41 30 11 96 35 145 53 77 27 104 32 185 33 100 1 137 -10 188 -58 29 -26 92
-27 140 -2 45 23 44 57 -5 90 -45 31 -90 96 -99 143 -10 53 1 132 23 161 26
36 99 72 146 72 96 0 163 -29 341 -146 289 -191 290 -192 354 -356 22 -57 63
-154 92 -217 28 -62 50 -114 48 -116 -2 -1 -41 -20 -88 -42 -76 -35 -162 -84
-241 -136 l-27 -18 -30 54 c-39 70 -112 142 -158 157 -52 17 -170 8 -219 -17
-22 -12 -60 -31 -85 -44 -32 -17 -67 -25 -118 -27 -70 -4 -72 -5 -46 -18 44
-23 97 -16 230 31 69 25 143 45 164 45 24 0 62 -13 101 -32 53 -28 68 -43 102
-97 l39 -65 -48 -42 c-27 -24 -52 -43 -56 -44 -4 0 -10 9 -13 21 -10 29 -63
88 -97 105 -18 9 -66 17 -121 19 l-92 4 82 -8 c103 -10 161 -41 199 -107 18
-31 24 -51 18 -59 -5 -7 -31 -39 -57 -71 -26 -33 -65 -94 -85 -136 -34 -69
-40 -77 -72 -83 -37 -7 -125 -58 -175 -101 l-30 -26 32 22 c36 23 179 90 194
90 5 0 9 -28 9 -62 0 -95 15 -136 69 -185 158 -145 364 -160 609 -43 185 88
309 187 577 455 212 213 319 311 478 439 l97 78 83 -42 c190 -98 192 -115 27
-228 -90 -61 -117 -72 -179 -72 -41 0 -52 -5 -81 -35 -18 -19 -31 -37 -28 -40
3 -3 14 5 25 18 54 70 143 59 167 -20 16 -51 133 -127 222 -144 114 -22 158
-76 174 -215 l9 -79 -4 90 c-3 50 -7 100 -11 113 -8 29 14 29 25 0 14 -37 56
-72 109 -91 41 -15 52 -24 57 -47 4 -16 1 -39 -5 -51 -18 -33 -7 -115 19 -142
11 -13 21 -27 21 -33 0 -5 -35 -8 -77 -7 -85 2 -96 9 -144 93 -14 25 -18 28
-13 11 12 -45 80 -146 97 -145 10 0 62 1 117 2 55 1 100 6 100 11 0 6 -14 18
-31 28 -19 11 -41 41 -60 79 -30 61 -30 61 -13 103 16 41 16 44 -3 69 -11 15
-42 41 -69 58 -27 17 -62 43 -78 58 -28 26 -28 30 -22 89 4 34 9 100 11 147 8
192 73 288 268 400 42 24 77 47 77 52 0 15 -53 21 -140 15 -70 -4 -105 -13
-176 -43 -77 -32 -102 -37 -191 -42 -134 -6 -207 4 -240 32 l-26 23 61 38 c34
20 68 48 77 61 8 13 56 45 106 70 50 25 89 48 86 50 -3 3 -19 -2 -37 -11 -18
-9 -34 -14 -37 -12 -2 3 -19 1 -36 -4 -69 -20 -95 -21 -105 -2 -6 10 -17 65
-26 122 -9 57 -26 121 -36 142 -52 102 -46 210 16 279 37 41 57 85 49 109 -8
25 29 76 69 95 42 20 95 10 140 -25 l26 -20 9 23 c17 41 85 121 129 153 33 22
55 30 88 30 53 0 82 -26 128 -112 25 -47 36 -58 56 -58 21 0 31 12 60 67 63
122 156 198 270 221 l64 13 -95 29 c-80 25 -110 29 -204 29 -60 0 -159 -8
-218 -18 -159 -26 -200 -6 -183 88 l7 34 -113 1 c-92 1 -129 6 -200 29 -65 20
-88 31 -88 44 0 12 -22 24 -82 43 -108 35 -217 89 -305 153 -78 57 -82 64 -84
125 -1 26 -3 32 -6 17 -9 -53 -12 -55 -44 -24 -42 40 -131 176 -164 249 -73
166 -106 374 -87 550 15 139 38 224 76 287 l32 53 61 -1 c38 -1 71 -7 86 -17
27 -18 37 -14 37 16 0 16 -5 18 -30 15 -17 -3 -33 -1 -36 4 -3 4 -23 8 -45 8
l-40 0 21 28 c11 15 56 58 98 96 121 107 361 269 289 194 -36 -38 -106 -141
-101 -149 7 -11 10 -9 69 48 22 21 51 54 65 73 78 113 99 130 255 205 167 81
407 177 562 224 104 32 123 46 123 91 0 11 -17 39 -37 60 -31 32 -49 42 -93
50 -160 30 -407 -56 -687 -241 -54 -35 -39 -2 30 65 71 69 158 116 307 165
116 37 165 48 250 55 244 20 307 16 336 -21 16 -22 18 -57 4 -84 -13 -24 -9
-24 40 1 83 43 140 110 140 167 0 30 -31 90 -58 111 -14 11 -14 12 4 12 11 0
50 -8 86 -19z m-1211 -437 c31 -28 22 -56 -29 -95 -65 -50 -109 -71 -140 -67
-23 3 -27 8 -30 40 -3 41 13 79 54 122 25 26 31 28 77 23 27 -4 58 -14 68 -23z
m2641 -1405 c51 -17 131 -49 177 -72 l84 -40 -134 -33 c-198 -49 -224 -46
-249 32 -15 43 0 144 20 144 5 0 51 -14 102 -31z m-1685 -366 c4 -9 -23 -40
-71 -85 -42 -38 -106 -104 -142 -146 -62 -71 -66 -77 -60 -113 6 -35 4 -38
-21 -41 -50 -6 -93 3 -93 19 0 16 91 135 119 156 9 6 54 55 100 107 46 52 93
102 104 111 22 18 56 14 64 -8z m-1141 -428 c5 -13 8 -13 21 0 29 29 205 9
274 -31 48 -29 72 -75 64 -123 -9 -56 -58 -125 -121 -173 -79 -59 -73 -104 16
-142 68 -28 110 -95 96 -151 -4 -14 -29 -50 -56 -80 -44 -49 -50 -60 -50 -100
0 -24 9 -68 20 -97 22 -61 68 -266 71 -318 2 -19 2 -51 1 -71 l-2 -37 -197 -1
c-108 0 -204 -3 -213 -6 -24 -8 -30 19 -30 143 0 198 -44 330 -136 409 -100
87 -133 203 -83 292 16 29 44 55 94 86 91 57 102 69 107 133 4 43 11 60 39 88
31 33 38 35 76 30 l42 -5 15 54 c17 57 52 94 90 96 12 0 15 3 8 6 -8 3 -38 -7
-68 -22 -39 -20 -58 -25 -66 -17 -7 7 -26 -6 -64 -43 -35 -35 -67 -58 -92 -65
-54 -14 -114 -60 -161 -123 -69 -95 -120 -97 -166 -8 -13 27 -38 59 -54 70
-17 12 -36 37 -42 56 -15 40 -15 40 -89 20 -85 -23 -146 -22 -174 4 -35 33
-101 29 -159 -10 -26 -17 -47 -32 -47 -34 0 -2 21 3 46 12 72 24 158 -1 229
-67 17 -15 73 -54 125 -86 161 -99 226 -174 218 -254 -3 -35 -2 -37 16 -28 24
13 32 1 47 -72 9 -46 20 -64 62 -105 73 -73 93 -109 122 -215 40 -147 52 -252
35 -303 l-15 -42 -190 -32 c-104 -18 -193 -32 -197 -33 -3 0 0 21 8 48 18 56
13 85 -28 207 -26 77 -30 99 -25 155 7 74 41 168 85 232 35 51 65 108 60 114
-10 9 -121 -137 -149 -195 -47 -96 -49 -162 -10 -279 35 -103 39 -171 16 -248
l-15 -50 -100 -31 c-60 -18 -103 -26 -106 -21 -4 6 -3 92 1 193 7 174 6 187
-16 252 -27 81 -46 102 -193 203 -60 41 -117 81 -128 89 -16 12 -18 12 -13 -2
4 -8 30 -31 58 -50 81 -54 211 -186 238 -242 21 -43 24 -66 26 -165 1 -63 5
-156 9 -206 l7 -91 -28 -7 c-15 -4 -29 -6 -30 -4 -2 2 -17 48 -33 104 -33 109
-111 275 -167 353 -19 27 -53 63 -76 82 -42 34 -51 40 -110 73 -102 56 -136
152 -83 234 18 28 87 31 117 5 20 -18 20 -18 1 17 -11 22 -18 57 -18 96 -1 52
5 73 42 147 26 52 65 111 100 149 49 54 52 59 22 39 -19 -12 -73 -41 -120 -63
-47 -21 -99 -47 -117 -56 -40 -20 -56 -7 -23 19 14 11 32 26 41 33 28 23 140
100 165 114 47 26 424 100 631 125 43 5 43 5 74 -49 26 -46 35 -54 59 -54 18
0 35 9 47 24 11 13 38 33 60 45 23 11 48 30 55 40 14 20 20 21 166 29 21 1 35
-3 38 -13z m3735 -107 c17 -60 25 -229 16 -317 -12 -121 -49 -241 -55 -176 -1
13 -8 63 -17 111 -19 110 -19 220 0 274 8 23 15 67 15 96 0 68 23 75 41 12z
m-4936 -70 c-22 -12 -100 -59 -174 -106 -198 -125 -270 -157 -353 -157 -64 0
-68 -1 -68 -23 0 -52 -28 -81 -123 -128 -84 -43 -166 -92 -193 -119 -6 -5 -57
-52 -113 -104 -68 -63 -98 -97 -90 -102 9 -5 6 -15 -12 -37 -45 -54 -141 -91
-241 -92 -27 0 -48 4 -48 8 0 15 137 166 212 233 301 269 625 454 1043 595
169 57 230 69 160 32z m3772 -1114 c-3 -3 -12 -4 -19 -1 -8 3 -5 6 6 6 11 1
17 -2 13 -5z m-2238 -71 c0 -5 -26 -25 -57 -45 -146 -94 -394 -312 -631 -553
-315 -321 -528 -464 -760 -511 -144 -28 -274 6 -377 99 -76 69 -92 147 -54
269 66 215 317 430 666 572 188 76 413 133 644 160 122 15 570 21 569 9z
m2053 -237 c87 -42 141 -137 142 -248 1 -41 -4 -72 -11 -79 -19 -19 -16 -28
12 -39 27 -10 64 -78 65 -116 0 -30 17 -41 74 -47 56 -6 124 -48 145 -91 30
-62 -36 -159 -153 -227 -85 -49 -147 -32 -201 53 -16 25 -48 57 -71 71 -60 36
-66 83 -29 230 6 22 4 26 -9 21 -22 -8 -69 -88 -96 -162 -13 -34 -25 -62 -27
-62 -2 0 -18 10 -34 23 -28 20 -42 22 -150 22 l-119 0 -9 27 c-6 15 -13 76
-17 135 -7 114 4 182 34 216 23 25 32 5 32 -73 1 -36 5 -85 11 -110 5 -25 13
-72 17 -105 l8 -60 14 59 c12 53 12 64 -4 108 -25 71 -30 134 -17 218 20 126
92 216 201 251 41 13 152 5 192 -15z m-213 -686 c27 -14 34 -55 16 -90 -49
-94 -263 -151 -626 -166 -90 -4 -204 -3 -254 1 -105 8 -104 9 37 81 258 130
726 229 827 174z m451 -1004 c0 -2 -7 -7 -16 -10 -8 -3 -12 -2 -9 4 6 10 25
14 25 6z m-85 -38 c-9 -6 -19 -7 -22 -4 -4 3 -1 6 6 6 7 0 9 4 6 10 -4 6 1 7
11 3 15 -6 15 -7 -1 -15z m-45 -18 c-8 -5 -19 -10 -25 -10 -5 0 -3 5 5 10 8 5
20 10 25 10 6 0 3 -5 -5 -10z m-95 -30 c-27 -12 -43 -12 -25 0 8 5 22 9 30 9
10 0 8 -3 -5 -9z m-158 -46 c-3 -3 -12 -4 -19 -1 -8 3 -5 6 6 6 11 1 17 -2 13
-5z m-1000 -636 c-3 -8 -6 -5 -6 6 -1 11 2 17 5 13 3 -3 4 -12 1 -19z m-162
-154 c15 -10 25 -26 25 -40 0 -29 -3 -29 -37 -7 -15 10 -56 23 -92 29 -57 10
-60 12 -26 13 22 1 47 6 55 11 22 14 47 12 75 -6z m-275 -19 c0 -17 -85 -61
-137 -71 -39 -7 -103 12 -103 32 0 8 11 14 28 15 15 0 59 9 97 19 91 23 115
24 115 5z m97 -1 c-3 -3 -12 -4 -19 -1 -8 3 -5 6 6 6 11 1 17 -2 13 -5z m-724
-45 c72 -18 97 -20 212 -13 148 9 151 9 182 -16 l23 -18 -48 -12 c-72 -19
-271 -25 -359 -10 -43 7 -109 24 -148 38 l-70 26 50 12 c70 16 67 16 158 -7z"/>
<path d="M4543 7673 c9 -2 23 -2 30 0 6 3 -1 5 -18 5 -16 0 -22 -2 -12 -5z"/>
<path d="M4091 6997 c0 -10 -10 -36 -21 -57 -11 -22 -18 -40 -15 -40 10 0 46
83 42 98 -4 15 -5 15 -6 -1z"/>
<path d="M4164 6873 c2 -10 10 -51 16 -90 14 -87 25 -98 16 -15 -11 93 -18
122 -28 122 -5 0 -7 -8 -4 -17z"/>
<path d="M4007 6849 c-22 -25 -27 -40 -26 -78 l1 -46 9 38 c5 20 18 55 29 77
11 22 19 40 17 40 -1 0 -15 -14 -30 -31z"/>
<path d="M4397 6713 c-13 -13 -7 -53 17 -105 15 -35 22 -64 19 -85 -4 -25 0
-34 21 -48 24 -16 29 -16 88 4 35 12 86 36 113 55 28 18 60 36 73 40 12 4 29
21 38 37 14 28 14 33 -1 56 -16 24 -20 25 -73 19 -155 -19 -150 -19 -196 8
-43 25 -85 33 -99 19z"/>
<path d="M6431 6619 c-120 -42 -168 -115 -172 -257 -1 -45 1 -85 5 -89 3 -3 6
-4 6 -2 0 3 11 34 25 70 22 57 22 61 5 40 -19 -22 -20 -22 -20 -3 0 51 26 125
54 157 17 20 63 51 101 69 78 39 77 44 -4 15z"/>
<path d="M4171 6595 c-1 -11 -4 -31 -6 -45 l-6 -25 11 25 c6 13 9 33 7 45 -4
19 -4 19 -6 0z"/>
<path d="M6426 6506 c8 -21 38 -28 100 -24 l49 3 -60 12 c-33 6 -68 15 -78 18
-13 6 -16 3 -11 -9z"/>
<path d="M6615 6500 l-30 -8 31 -1 c16 0 39 -7 49 -15 19 -14 19 -15 -3 -83
-13 -37 -26 -75 -28 -83 -3 -8 4 -4 15 10 27 32 49 108 41 139 -8 33 -38 49
-75 41z"/>
<path d="M4578 6293 c6 -2 18 -2 25 0 6 3 1 5 -13 5 -14 0 -19 -2 -12 -5z"/>
<path d="M6210 6260 c-8 -5 -10 -10 -5 -10 6 0 17 5 25 10 8 5 11 10 5 10 -5
0 -17 -5 -25 -10z"/>
<path d="M5138 6243 c7 -3 16 -2 19 1 4 3 -2 6 -13 5 -11 0 -14 -3 -6 -6z"/>
<path d="M5607 6218 c-20 -22 -33 -28 -50 -23 -17 5 -19 4 -7 -4 8 -6 69 -11
138 -11 l123 0 -17 29 c-15 25 -19 27 -29 15 -6 -9 -31 -16 -65 -18 -66 -4
-73 -1 -60 25 15 27 0 21 -33 -13z"/>
<path d="M5211 6236 c2 -2 20 -6 39 -10 25 -4 31 -3 20 4 -14 9 -69 15 -59 6z"/>
<path d="M5315 6220 c11 -5 27 -9 35 -9 13 -1 13 0 0 9 -8 5 -24 9 -35 9 l-20
0 20 -9z"/>
<path d="M6420 6215 c14 -8 34 -14 45 -14 13 0 8 5 -15 14 -46 18 -61 18 -30
0z"/>
<path d="M5378 6213 c7 -3 16 -2 19 1 4 3 -2 6 -13 5 -11 0 -14 -3 -6 -6z"/>
<path d="M5893 6207 c-54 -10 -76 -30 -25 -22 15 2 57 7 94 10 37 3 78 10 90
15 32 12 -90 11 -159 -3z"/>
<path d="M5455 6200 c17 -4 41 -8 55 -8 l25 0 -25 8 c-14 4 -38 8 -55 8 l-30
0 30 -8z"/>
<path d="M7392 5893 c-7 -2 -25 -24 -41 -47 -19 -27 -50 -53 -88 -73 -32 -18
-71 -46 -88 -63 -26 -27 -30 -41 -36 -108 -4 -42 -3 -81 1 -86 11 -11 135 31
152 51 7 9 24 39 38 67 21 42 35 57 85 84 67 38 75 46 75 84 0 64 -50 111 -98
91z"/>
<path d="M5415 5789 c-58 -65 -79 -121 -70 -188 5 -31 8 -73 9 -95 1 -45 25
-68 54 -50 31 19 51 75 52 145 0 54 6 77 31 124 26 48 29 62 20 82 -17 36 -53
30 -96 -18z"/>
<path d="M4936 5758 c-2 -7 -9 -31 -15 -53 -16 -54 3 -106 66 -183 26 -33 53
-68 59 -78 16 -27 65 -9 78 29 8 23 5 33 -22 69 -64 86 -119 174 -126 201 -6
27 -34 37 -40 15z"/>
<path d="M4711 5583 c-1 -57 29 -133 73 -184 46 -55 53 -93 33 -202 -13 -77
-21 -95 -48 -123 -26 -27 -29 -34 -15 -34 9 0 30 7 45 15 35 17 61 89 61 165
0 57 -30 152 -60 190 -35 44 -64 104 -76 160 l-12 55 -1 -42z"/>
<path d="M2456 5380 c-72 -23 -76 -27 -78 -75 -1 -32 4 -42 33 -66 19 -16 68
-40 109 -54 41 -15 93 -36 115 -47 59 -30 87 -22 104 28 13 37 13 45 -1 67 -9
13 -49 39 -88 58 -58 27 -75 40 -88 69 -21 42 -31 44 -106 20z"/>
<path d="M6437 5388 c-17 -14 -47 -78 -47 -102 0 -27 42 -39 140 -41 52 -1
114 -5 137 -10 50 -9 73 4 73 41 0 33 -32 62 -77 69 -64 9 -167 36 -177 46
-13 12 -29 11 -49 -3z"/>
<path d="M5233 5255 c-26 -11 -99 -92 -91 -101 7 -5 268 41 268 48 0 5 -6 8
-14 8 -7 0 -30 14 -51 30 -42 33 -64 36 -112 15z"/>
<path d="M7014 5158 c-16 -18 -41 -46 -54 -62 l-25 -30 32 22 c45 32 96 51
161 63 94 17 103 22 47 30 -106 15 -129 12 -161 -23z"/>
<path d="M5083 5107 c-50 -12 -59 -32 -10 -23 17 4 54 9 80 13 32 4 44 9 35
14 -16 11 -51 10 -105 -4z"/>
<path d="M5730 5049 c-193 -37 -262 -48 -342 -50 -38 -1 -68 -5 -68 -9 0 -17
45 -62 78 -79 21 -11 57 -40 82 -66 44 -45 45 -48 45 -109 l0 -64 47 4 c33 2
61 12 91 32 23 17 73 44 110 62 71 33 88 55 117 145 31 96 50 124 93 136 23 6
72 9 109 7 58 -3 72 -8 110 -38 37 -30 41 -31 27 -10 -9 14 -31 35 -49 48 -30
20 -43 22 -169 21 -105 -1 -170 -8 -281 -30z"/>
<path d="M2012 4958 c-33 -33 0 -101 55 -114 16 -3 50 -13 77 -21 67 -21 187
-14 224 14 45 33 41 58 -15 83 -40 18 -59 21 -116 16 -56 -5 -77 -3 -114 14
-52 23 -93 26 -111 8z"/>
<path d="M6066 4880 c-45 -23 -60 -40 -88 -100 -11 -25 -39 -64 -61 -87 -36
-38 -39 -43 -20 -43 12 0 24 -3 27 -8 9 -15 -42 -51 -80 -57 -21 -3 -54 -7
-73 -9 -43 -6 -60 -23 -68 -69 -7 -48 3 -84 27 -92 27 -8 88 22 108 54 44 70
150 179 206 213 33 21 73 52 88 70 31 37 52 99 43 128 -8 26 -57 26 -109 0z"/>
<path d="M1725 4871 c-27 -10 -65 -26 -84 -35 -19 -11 -43 -15 -57 -12 -53 14
-154 -74 -173 -151 -11 -43 -47 -114 -86 -168 -14 -19 -13 -21 13 -20 24 0 27
-4 34 -45 12 -80 11 -206 -2 -229 -15 -29 -67 -50 -117 -48 -21 0 -55 -5 -73
-13 l-35 -15 40 -6 c22 -3 51 -9 65 -13 21 -6 37 3 92 49 76 62 101 67 213 40
104 -25 113 -23 184 49 60 61 64 68 66 114 3 74 43 151 126 236 40 41 86 81
102 87 l29 12 -88 46 c-48 25 -110 67 -138 93 -28 26 -53 48 -56 48 -3 -1 -27
-9 -55 -19z"/>
<path d="M5169 4662 c-31 -28 -42 -47 -46 -79 l-6 -43 79 34 c44 19 87 37 98
40 14 5 17 12 11 34 -10 40 -24 52 -62 52 -25 0 -44 -9 -74 -38z"/>
<path d="M2335 4580 c-22 -4 -77 -14 -122 -23 -45 -8 -90 -20 -100 -27 -17
-11 -17 -11 2 -5 11 4 54 11 95 16 41 5 107 17 145 28 69 20 58 26 -20 11z"/>
<path d="M2036 4499 c-44 -24 -123 -79 -112 -79 5 0 22 10 38 22 17 11 53 34
82 49 58 33 51 39 -8 8z"/>
<path d="M5120 4427 c-120 -61 -125 -67 -90 -105 23 -25 75 -29 101 -9 29 22
82 148 62 147 -5 -1 -37 -15 -73 -33z"/>
<path d="M2078 4312 c-43 -29 -133 -103 -141 -118 -10 -17 12 -52 38 -60 13
-5 24 0 35 17 8 13 39 46 68 74 51 51 66 88 38 98 -7 3 -25 -2 -38 -11z"/>
<path d="M4140 4283 c-38 -27 -184 -98 -240 -116 -8 -3 -1 -6 15 -6 49 -2 93
-18 134 -50 54 -43 87 -54 105 -36 16 17 29 116 24 186 l-3 47 -35 -25z"/>
<path d="M2451 4285 c-18 -8 -73 -47 -121 -85 -66 -53 -94 -82 -111 -118 -12
-26 -26 -56 -32 -67 -5 -11 9 -3 32 20 22 21 41 45 41 53 0 16 115 132 130
132 6 0 29 11 51 26 22 14 62 28 89 31 27 3 47 10 44 14 -8 14 -86 10 -123 -6z"/>
<path d="M5321 4194 c0 -11 3 -14 6 -6 3 7 2 16 -1 19 -3 4 -6 -2 -5 -13z"/>
<path d="M4396 4139 c-29 -35 -32 -62 -12 -116 8 -21 17 -51 21 -68 8 -34 22
-55 39 -55 7 0 35 23 64 51 37 36 52 58 52 77 0 33 -5 40 -55 77 -22 16 -46
37 -53 47 -18 25 -26 23 -56 -13z"/>
<path d="M2274 3988 l-19 -23 23 19 c21 18 27 26 19 26 -2 0 -12 -10 -23 -22z"/>
<path d="M1747 3978 c-66 -14 -147 -65 -209 -133 -39 -42 -43 -61 -19 -87 12
-12 21 -28 21 -35 0 -14 55 -118 73 -139 7 -7 17 -19 22 -26 66 -83 94 -113
119 -123 16 -7 62 -45 102 -85 l72 -72 106 53 106 54 0 69 c0 81 21 134 74
185 35 34 35 34 18 65 l-16 31 -6 -32 c-7 -43 -33 -73 -58 -66 -11 2 -47 30
-81 62 -55 52 -61 61 -61 98 0 52 17 101 38 106 9 3 -11 5 -46 6 -66 1 -123
19 -157 50 -26 24 -52 29 -98 19z"/>
<path d="M3602 3962 c-10 -10 -30 -34 -46 -55 -16 -20 -56 -57 -90 -81 -33
-24 -79 -60 -101 -80 -58 -52 -196 -143 -272 -178 -64 -30 -65 -30 -202 -26
-125 4 -144 7 -193 31 -102 50 -130 77 -176 169 -52 105 -56 154 -15 193 36
32 20 33 -23 0 -47 -36 -55 -84 -21 -133 31 -44 72 -150 112 -285 27 -91 27
-99 12 -114 -9 -10 -38 -20 -64 -23 -35 -4 -49 -10 -51 -22 -4 -22 22 -24 69
-4 47 20 72 7 156 -79 114 -118 207 -153 320 -120 34 10 81 34 113 59 77 59
156 105 293 172 100 49 122 56 145 48 21 -7 28 -17 30 -42 2 -24 8 -32 23 -32
11 0 19 -7 19 -17 0 -11 3 -14 10 -7 6 6 14 42 19 82 12 91 36 141 122 250 40
50 69 97 69 110 0 34 -53 62 -118 62 -71 0 -102 29 -102 95 0 48 -10 55 -38
27z"/>
<path d="M2201 3854 c0 -11 3 -14 6 -6 3 7 2 16 -1 19 -3 4 -6 -2 -5 -13z"/>
<path d="M1211 3850 c-24 -3 -45 -18 -73 -51 -50 -60 -59 -106 -29 -159 12
-22 26 -65 31 -96 12 -74 22 -85 62 -70 49 18 72 82 62 171 -9 86 -9 120 1
166 8 42 -1 48 -54 39z"/>
<path d="M4343 3823 c-8 -18 -9 -191 -1 -198 2 -3 31 7 64 20 32 14 69 25 82
25 30 0 27 11 -11 35 -17 11 -49 45 -70 75 -43 62 -54 69 -64 43z m72 -80 c19
-21 35 -41 35 -45 0 -10 -69 -31 -84 -25 -28 11 -28 107 0 107 8 0 29 -17 49
-37z"/>
<path d="M4061 3770 c-18 -11 -42 -159 -30 -182 19 -36 69 -16 119 46 17 22
28 46 25 54 -19 50 -87 99 -114 82z"/>
<path d="M2366 3711 c-24 -26 -17 -62 16 -81 25 -13 29 -13 45 2 14 14 15 24
7 55 -11 45 -40 55 -68 24z"/>
<path d="M1465 3643 c-19 -128 -71 -243 -153 -335 -43 -48 -35 -51 12 -5 10
11 46 37 80 59 67 43 90 44 173 8 33 -14 47 -29 68 -70 14 -28 57 -81 94 -118
38 -37 78 -83 90 -102 l21 -35 0 52 c0 28 5 64 10 79 10 26 6 32 -80 118 -50
50 -99 106 -110 124 -11 18 -27 35 -35 38 -8 4 -15 12 -15 19 0 6 -10 20 -21
31 -12 10 -32 42 -44 71 -13 28 -37 65 -53 82 l-30 32 -7 -48z"/>
<path d="M4166 3548 c-11 -6 -34 -12 -52 -14 -59 -4 -138 -75 -295 -264 -92
-110 -145 -275 -154 -481 -4 -83 -3 -143 4 -159 9 -22 10 -19 11 25 2 116 34
282 80 413 60 171 221 356 416 479 24 15 15 16 -10 1z"/>
<path d="M2283 3528 c-15 -19 -43 -108 -43 -134 0 -56 97 -44 141 17 31 44 22
79 -26 106 -46 26 -59 28 -72 11z"/>
<path d="M3882 3520 c-27 -16 -31 -24 -22 -34 16 -20 90 9 90 36 0 24 -26 23
-68 -2z"/>
<path d="M6312 3496 c-44 -48 -61 -101 -43 -135 16 -29 45 -26 96 9 54 37 61
57 40 120 -21 63 -39 64 -93 6z"/>
<path d="M4149 3479 c-35 -29 -87 -74 -116 -100 -28 -27 -56 -49 -62 -49 -17
0 -68 -75 -75 -110 -4 -25 -3 -29 3 -15 16 37 38 48 87 42 28 -3 55 -14 71
-28 52 -48 110 -153 147 -269 31 -93 76 -190 89 -190 1 0 1 18 -1 39 -3 33 0
42 21 56 24 15 24 17 10 46 -13 26 -13 40 -4 87 14 71 14 73 -4 66 -18 -7 -29
18 -21 49 8 30 102 129 149 157 20 12 37 26 37 31 0 4 -36 -16 -81 -45 -210
-140 -308 -32 -204 227 12 31 22 57 21 57 -1 0 -31 -23 -67 -51z"/>
<path d="M4520 3320 c-18 -12 -2 -12 25 0 13 6 15 9 5 9 -8 0 -22 -4 -30 -9z"/>
<path d="M4879 3303 c6 -12 42 -49 80 -83 74 -65 110 -125 109 -178 -1 -17 5
-44 12 -61 18 -44 -5 -76 -60 -85 -52 -8 -64 1 -99 74 -24 51 -26 53 -29 26
-2 -15 6 -51 18 -78 12 -27 19 -56 16 -64 -3 -8 -47 -34 -98 -58 l-92 -43 -16
21 c-9 11 -29 47 -43 79 -22 49 -33 61 -69 77 -24 10 -68 21 -98 24 l-55 6 50
-16 c90 -27 133 -54 160 -100 25 -43 32 -74 16 -74 -5 0 -16 11 -25 25 -17 26
-93 81 -101 73 -3 -2 19 -25 49 -51 72 -62 76 -81 22 -107 -23 -11 -54 -20
-69 -20 -15 0 -27 -4 -27 -10 0 -21 118 4 127 27 4 11 8 12 13 2 6 -9 18 -6
47 11 21 13 76 44 123 68 47 25 86 49 88 53 2 4 9 6 16 3 7 -3 37 7 67 21 30
13 64 25 76 25 12 0 28 3 37 6 13 5 13 9 -5 33 -14 19 -21 50 -26 111 -6 83
-7 86 -45 120 -22 19 -71 64 -110 100 -39 36 -66 55 -59 43z"/>
<path d="M5265 3291 c-6 -28 -4 -37 11 -48 10 -7 24 -13 32 -13 12 0 12 3 -2
19 -9 10 -21 32 -25 47 l-8 29 -8 -34z"/>
<path d="M4775 3300 c-19 -7 -19 -7 2 -18 26 -14 77 -115 97 -192 14 -51 15
-52 15 -19 1 45 -16 96 -60 175 -28 51 -37 60 -54 54z"/>
<path d="M5530 3248 c0 -36 4 -35 14 5 4 16 2 27 -4 27 -5 0 -10 -14 -10 -32z"/>
<path d="M6635 3233 c-33 -14 -86 -28 -118 -31 -75 -6 -118 -34 -133 -87 -29
-95 -5 -167 60 -179 41 -8 80 9 141 61 21 18 57 38 80 45 43 12 102 67 111
105 8 30 -13 79 -40 98 -26 19 -29 18 -101 -12z"/>
<path d="M1389 3217 c-37 -14 -144 -91 -169 -123 -8 -10 7 -2 33 18 153 116
275 110 386 -19 54 -63 137 -220 201 -378 29 -71 54 -132 56 -134 2 -2 1 14
-3 35 -5 37 -13 59 -84 231 -16 39 -64 127 -107 195 -69 109 -84 126 -130 151
-61 33 -133 43 -183 24z"/>
<path d="M3857 3107 c-15 -40 -27 -90 -27 -112 1 -97 56 -241 118 -304 36 -37
69 -138 50 -156 -2 -2 -26 3 -54 11 -59 17 -119 64 -139 108 -8 20 -14 25 -14
13 -2 -31 38 -96 68 -112 24 -12 276 -77 388 -100 38 -7 88 -55 111 -105 14
-32 16 -33 19 -12 10 55 136 67 183 17 27 -29 56 -23 76 16 22 43 71 95 136
145 32 25 58 49 58 54 0 5 -24 8 -52 7 -47 -2 -53 0 -56 19 -2 11 3 40 11 62
14 41 11 51 -8 33 -27 -24 -142 -52 -204 -50 -36 1 -78 -1 -93 -5 -24 -7 -33
-3 -63 27 l-34 34 6 -43 c7 -53 -13 -89 -62 -110 -72 -30 -198 -8 -249 42 -18
18 -27 41 -32 80 -5 44 -16 68 -55 121 -66 89 -73 119 -61 267 6 67 10 122 9
123 -1 1 -14 -31 -30 -70z"/>
<path d="M5684 3155 c-9 -13 -18 -42 -21 -64 -5 -33 -1 -43 20 -63 31 -29 132
-72 152 -64 20 7 20 68 0 106 -13 25 -113 110 -129 110 -3 0 -13 -11 -22 -25z"/>
<path d="M2222 3130 c-12 -12 -22 -24 -22 -29 0 -26 214 -90 234 -71 14 14 -1
39 -31 51 -15 6 -55 24 -88 40 -34 16 -63 29 -66 29 -3 0 -15 -9 -27 -20z"/>
<path d="M3450 3113 c-8 -3 -26 -16 -40 -29 -14 -12 -99 -59 -190 -102 -179
-87 -288 -119 -370 -109 -25 3 -65 3 -88 0 -35 -5 -42 -9 -42 -27 0 -30 48
-102 77 -115 40 -18 116 -13 180 14 33 13 103 31 155 39 113 18 259 75 293
113 60 68 94 180 63 211 -13 13 -15 13 -38 5z"/>
<path d="M1854 3018 c20 -93 150 -299 229 -362 35 -28 45 -31 110 -31 40 0 90
4 112 9 22 4 63 10 92 13 80 7 158 -35 283 -153 56 -53 104 -93 107 -90 3 3
-12 32 -35 64 -22 32 -50 82 -61 111 -11 29 -27 62 -37 72 -49 55 -235 65
-324 18 -93 -48 -204 -25 -289 60 -36 36 -131 186 -173 275 -13 28 -18 33 -14
14z"/>
<path d="M6786 3005 c-11 -8 -15 -15 -9 -15 7 0 15 5 18 10 4 6 11 7 17 4 7
-4 8 -2 4 4 -9 14 -7 15 -30 -3z"/>
<path d="M2325 2941 c-11 -5 -26 -6 -32 -4 -18 7 -16 -12 2 -27 18 -15 52 -4
65 21 12 21 1 24 -35 10z"/>
<path d="M5198 2913 c7 -3 16 -2 19 1 4 3 -2 6 -13 5 -11 0 -14 -3 -6 -6z"/>
<path d="M3755 2852 c4 -8 13 -48 21 -90 l13 -77 -3 73 c-3 54 -8 78 -21 90
-10 10 -14 11 -10 4z"/>
<path d="M4422 2731 c6 -11 30 -29 52 -41 l41 -22 -43 41 c-45 43 -70 54 -50
22z"/>
<path d="M5137 2555 c-36 -40 -45 -42 -80 -15 -14 11 -30 20 -35 20 -14 0 -42
-63 -42 -94 0 -25 3 -26 53 -27 28 0 65 -3 80 -5 36 -6 83 39 92 89 14 74 -18
89 -68 32z"/>
<path d="M3550 2543 c-61 -10 -229 -58 -284 -80 -155 -63 -204 -144 -136 -224
l20 -24 -16 30 c-12 22 -15 41 -10 65 13 69 70 111 186 138 77 19 277 86 289
97 5 5 -10 5 -49 -2z"/>
<path d="M1910 2535 c0 -5 5 -17 10 -25 5 -8 10 -10 10 -5 0 6 -5 17 -10 25
-5 8 -10 11 -10 5z"/>
<path d="M1930 2485 c0 -5 5 -17 10 -25 5 -8 10 -10 10 -5 0 6 -5 17 -10 25
-5 8 -10 11 -10 5z"/>
<path d="M5125 2370 c3 -5 11 -10 16 -10 6 0 7 5 4 10 -3 6 -11 10 -16 10 -6
0 -7 -4 -4 -10z"/>
<path d="M5433 1923 c-23 -34 -30 -149 -13 -209 12 -41 14 -43 30 -29 26 23
81 19 120 -10 19 -14 39 -25 46 -25 6 0 28 -13 48 -29 20 -16 56 -32 79 -36
59 -10 136 -44 174 -76 18 -16 51 -33 73 -39 71 -19 183 -86 223 -135 21 -25
56 -54 77 -65 21 -11 44 -28 49 -37 10 -17 10 -17 11 -1 0 10 10 20 24 24 34
8 55 34 61 75 5 33 5 34 -7 8 -32 -65 -65 -75 -126 -37 -20 12 -32 17 -28 10
5 -8 2 -10 -8 -6 -9 3 -14 10 -13 14 1 4 -2 9 -8 10 -5 2 -22 24 -37 50 -15
26 -46 64 -70 84 -35 31 -42 42 -40 67 4 34 -21 79 -43 79 -8 0 -15 5 -15 10
0 6 -9 10 -19 10 -10 0 -21 7 -25 15 -3 9 -18 15 -39 15 -19 0 -45 8 -58 19
-13 10 -58 35 -99 56 -41 21 -135 78 -208 126 -73 49 -135 89 -137 89 -3 0
-12 -12 -22 -27z m146 -144 c20 -7 45 -15 56 -20 97 -39 125 -53 125 -61 0 -6
-6 -8 -12 -5 -7 2 -31 10 -53 17 -22 7 -53 18 -70 25 -16 7 -45 18 -63 25 -63
24 -49 40 17 19z"/>
<path d="M5568 1587 c8 -9 33 -23 57 -33 25 -9 51 -27 59 -39 8 -13 34 -31 58
-40 27 -11 54 -32 73 -58 19 -25 40 -41 55 -43 23 -3 22 -2 -7 14 -17 9 -42
32 -55 51 -13 20 -36 38 -52 42 -16 5 -45 24 -65 42 -20 19 -47 38 -61 42 -14
4 -36 14 -50 23 -23 14 -24 14 -12 -1z"/>
<path d="M5930 1320 c0 -5 9 -10 20 -10 13 0 28 -13 41 -35 25 -42 35 -47 14
-6 -21 42 -75 78 -75 51z"/>
<path d="M6030 1236 c0 -2 7 -7 16 -10 8 -3 12 -2 9 4 -6 10 -25 14 -25 6z"/>
<path d="M3181 5933 c-23 -28 -29 -47 -33 -102 -3 -29 -8 -36 -32 -42 -69 -19
-55 -95 20 -113 31 -8 187 67 215 102 21 27 25 52 9 52 -6 0 -10 6 -8 13 4 23
-21 54 -70 86 -59 38 -75 39 -101 4z"/>
<path d="M4138 5939 c-13 -7 -16 -24 -16 -74 2 -75 -14 -101 -68 -111 -43 -8
-84 -40 -84 -64 0 -26 27 -50 56 -50 27 0 124 46 136 64 4 6 8 36 8 66 0 30 7
73 14 95 20 56 -6 96 -46 74z"/>
<path d="M6347 4539 c-29 -24 -37 -37 -37 -64 0 -41 24 -61 87 -71 37 -6 43
-4 57 19 10 14 19 41 23 60 4 29 1 40 -20 61 -34 34 -64 33 -110 -5z"/>
<path d="M6571 4076 c-16 -19 -11 -47 9 -56 75 -36 90 -45 90 -57 0 -7 9 -22
20 -33 39 -39 130 -16 130 34 0 30 -18 46 -54 46 -30 1 -68 18 -117 51 -37 26
-65 31 -78 15z"/>
</g>
</svg>
