<?xml version="1.0" standalone="no"?>
<!DOCTYPE svg PUBLIC "-//W3C//DTD SVG 20010904//EN"
 "http://www.w3.org/TR/2001/REC-SVG-20010904/DTD/svg10.dtd">
<svg version="1.0" xmlns="http://www.w3.org/2000/svg"
 width="782.000000pt" height="477.000000pt" viewBox="0 0 782.000000 477.000000"
 preserveAspectRatio="xMidYMid meet">

<g transform="translate(0.000000,477.000000) scale(0.100000,-0.100000)"
fill="#000000" stroke="none">
<path d="M3735 4750 c-217 -13 -579 -81 -731 -136 -180 -65 -460 -221 -552
-308 -60 -56 -112 -153 -138 -256 -19 -73 -25 -371 -11 -521 l8 -85 -83 12
c-125 19 -351 17 -508 -6 -152 -21 -445 -87 -535 -120 -148 -55 -350 -162
-493 -261 -321 -223 -462 -361 -554 -542 -79 -158 -146 -589 -118 -762 35
-214 156 -429 327 -582 202 -179 316 -247 593 -355 260 -102 416 -141 638
-159 145 -11 173 -11 279 5 129 19 276 62 368 108 33 17 103 60 155 96 214
148 296 264 370 522 l28 95 -2 -95 c0 -52 1 -133 3 -180 3 -73 -1 -99 -28
-190 -42 -138 -48 -209 -27 -286 22 -75 52 -120 135 -204 72 -73 140 -183 178
-287 33 -90 74 -147 126 -172 24 -12 48 -21 54 -21 6 0 13 -6 16 -14 8 -19
128 -40 190 -32 57 8 169 56 205 90 64 57 94 178 85 343 -4 71 -2 117 4 125 6
7 14 29 18 48 4 19 18 58 31 85 51 108 51 245 -2 352 -25 53 -138 176 -224
246 l-45 37 115 -54 c200 -93 336 -132 570 -161 243 -30 501 -10 782 61 264
66 411 147 647 357 218 192 294 339 320 613 19 211 -18 448 -97 617 -47 100
-161 281 -249 395 -84 108 -295 316 -405 400 -48 36 -85 68 -83 70 11 12 197
-38 390 -104 651 -224 871 -287 1085 -314 149 -18 498 -13 635 10 231 38 314
73 430 182 100 93 155 220 174 403 12 116 0 194 -44 283 -72 144 -184 228
-440 330 -172 68 -237 83 -384 89 -132 6 -336 -11 -347 -28 -13 -22 66 -48
256 -84 169 -33 332 -115 442 -225 71 -71 95 -124 83 -181 -9 -39 -41 -62
-125 -89 -63 -20 -84 -22 -174 -17 -183 12 -347 66 -601 199 -60 32 -175 89
-255 128 -80 39 -203 100 -273 136 -442 224 -998 367 -1537 393 -200 10 -522
10 -675 1z m875 -36 c74 -7 160 -17 190 -20 30 -3 109 -17 175 -30 116 -23
152 -32 355 -89 52 -15 118 -33 146 -40 104 -28 267 -101 599 -266 449 -224
529 -267 533 -284 2 -9 -11 -18 -37 -25 -24 -6 -41 -17 -41 -25 0 -44 -122
-19 -207 42 -17 13 -64 35 -105 49 -40 14 -107 48 -148 74 -41 26 -120 69
-175 95 -55 26 -131 62 -170 80 -124 59 -377 115 -443 99 -57 -14 -52 -36 16
-82 32 -23 66 -52 76 -66 24 -38 81 -72 157 -96 69 -21 337 -147 284 -133 -16
4 -50 6 -75 5 -36 -1 -50 4 -71 24 -19 18 -33 23 -51 19 -17 -4 -29 0 -42 14
-11 12 -27 21 -37 21 -9 0 -41 11 -69 24 -44 20 -57 23 -78 13 -22 -10 -27 -9
-39 10 -12 18 -21 21 -45 16 -24 -5 -34 -1 -48 17 -24 32 -107 62 -132 49 -21
-11 -48 3 -48 26 0 17 -23 25 -49 18 -21 -5 -51 11 -51 28 0 5 5 9 12 9 15 0
147 63 147 70 -1 3 -25 27 -55 53 -63 58 -94 70 -243 92 -62 9 -157 30 -210
47 -87 27 -107 29 -211 27 -63 -1 -167 -3 -230 -3 -171 -2 -310 -16 -310 -32
0 -16 -9 -17 -29 -5 -8 5 -11 16 -8 24 3 9 -3 19 -18 25 -18 8 -25 8 -29 -4
-6 -16 -42 -19 -52 -3 -3 6 -1 16 5 22 19 19 12 36 -19 52 -31 16 -36 30 -20
55 7 11 36 17 107 21 150 10 641 0 793 -17z m-990 -39 c0 -16 -35 -21 -44 -6
-8 12 4 21 26 21 10 0 18 -7 18 -15z m-230 -5 c0 -6 30 -41 68 -79 37 -37 80
-87 97 -110 62 -88 190 -159 328 -181 50 -8 83 -21 129 -50 35 -23 99 -52 148
-66 88 -26 143 -44 291 -94 120 -40 245 -54 399 -44 164 11 171 10 243 -36
104 -68 169 -84 337 -85 l145 0 45 -48 c68 -74 188 -167 255 -197 78 -36 148
-50 242 -50 73 0 76 -1 123 -40 76 -64 131 -84 225 -84 90 0 162 22 254 76 71
43 185 156 236 236 l40 62 70 -6 c39 -3 88 -14 110 -24 22 -11 67 -25 100 -32
59 -13 61 -14 107 -83 80 -119 179 -153 273 -95 57 35 91 119 100 240 3 52 10
111 14 130 l8 35 13 -60 c15 -72 8 -175 -20 -293 -36 -150 -95 -240 -212 -322
-137 -96 -289 -130 -623 -137 -434 -10 -566 19 -1375 296 -213 73 -326 106
-408 120 -62 10 -122 25 -135 33 -56 36 -343 160 -447 193 -177 55 -462 105
-673 116 -185 10 -202 14 -330 73 -89 41 -95 31 -9 -14 l57 -30 -65 6 c-36 4
-128 19 -205 36 -77 16 -153 31 -170 35 -16 3 -28 3 -25 0 12 -13 201 -58 340
-81 176 -30 208 -33 427 -46 182 -11 305 -30 523 -85 152 -38 276 -85 462
-173 194 -92 288 -161 483 -357 145 -145 185 -192 271 -320 206 -304 257 -456
258 -760 0 -220 -35 -365 -122 -500 -47 -74 -216 -250 -231 -241 -5 3 -12 21
-15 40 -6 29 -2 42 23 76 58 81 61 161 8 265 -14 28 -19 56 -18 93 1 29 -5 78
-14 108 l-16 55 37 107 c23 69 38 134 41 182 5 67 2 83 -22 140 -17 41 -36
118 -50 210 -30 184 -37 208 -85 268 -80 102 -205 130 -326 73 -39 -18 -74
-44 -94 -70 -19 -23 -52 -52 -74 -65 -55 -33 -221 -195 -256 -249 -32 -51
-111 -107 -151 -107 -44 0 -190 38 -357 92 -162 52 -296 110 -572 248 -91 45
-311 140 -490 212 -340 136 -542 199 -703 219 -101 13 -90 -2 -108 161 -15
136 -6 390 16 472 54 195 137 273 481 447 148 75 244 110 401 144 120 26 173
30 173 15z m305 -19 c8 -13 -24 -29 -46 -24 -33 9 -20 33 17 33 13 0 25 -4 29
-9z m-55 -91 c0 -5 -9 -10 -20 -10 -11 0 -20 5 -20 10 0 6 9 10 20 10 11 0 20
-4 20 -10z m165 -49 c0 -8 -4 -16 -10 -18 -16 -5 -38 14 -30 26 9 16 40 9 40
-8z m3212 -12 c91 -13 273 -71 392 -125 l83 -38 -37 -13 c-53 -18 -103 -59
-122 -98 l-16 -33 -66 50 c-127 99 -271 155 -513 203 -48 10 -95 23 -105 30
-15 11 -5 14 62 20 44 3 85 8 90 10 22 8 159 4 232 -6z m528 -229 c0 -22 -29
-18 -33 3 -3 14 1 18 15 15 10 -2 18 -10 18 -18z m-90 -10 c-3 -5 -14 -10 -23
-10 -15 0 -15 2 -2 10 20 13 33 13 25 0z m-2537 -17 c2 -7 -4 -16 -12 -19 -19
-7 -49 14 -40 28 8 13 46 6 52 -9z m72 -28 c10 -12 9 -16 -5 -21 -19 -8 -40 9
-31 25 10 15 21 14 36 -4z m2518 -33 c2 -12 -1 -22 -6 -22 -15 0 -34 28 -27
40 10 17 30 6 33 -18z m-73 -2 c8 -13 -22 -43 -35 -35 -18 11 -11 45 9 45 11
0 23 -5 26 -10z m150 -28 c0 -18 -20 -15 -23 4 -3 10 1 15 10 12 7 -3 13 -10
13 -16z m-85 -122 c0 -5 -4 -10 -10 -10 -5 0 -10 5 -10 10 0 6 5 10 10 10 6 0
10 -4 10 -10z m-1595 -70 c3 -5 2 -10 -4 -10 -5 0 -13 5 -16 10 -3 6 -2 10 4
10 5 0 13 -4 16 -10z m821 -15 c10 -8 14 -15 8 -15 -5 0 -19 7 -30 15 -10 8
-14 15 -8 15 5 0 19 -7 30 -15z m-871 -5 c3 -5 -1 -10 -9 -10 -8 0 -18 5 -21
10 -3 6 1 10 9 10 8 0 18 -4 21 -10z m1715 -10 c0 -11 -7 -20 -15 -20 -15 0
-21 21 -8 33 12 13 23 7 23 -13z m-932 -13 c2 -11 -3 -17 -16 -17 -20 0 -36
23 -24 34 11 12 37 1 40 -17z m152 -27 c0 -5 -4 -10 -10 -10 -5 0 -10 5 -10
10 0 6 5 10 10 10 6 0 10 -4 10 -10z m-140 -40 c0 -5 -9 -10 -20 -10 -11 0
-20 5 -20 10 0 6 9 10 20 10 11 0 20 -4 20 -10z m-4445 -409 l30 -6 -31 -13
c-41 -17 -99 -78 -118 -123 -8 -19 -16 -62 -18 -95 -1 -32 -7 -62 -13 -66 -5
-4 -10 -45 -10 -90 0 -65 5 -92 22 -123 23 -44 100 -120 181 -179 28 -21 52
-45 52 -54 0 -10 9 -32 21 -51 11 -19 25 -64 31 -100 6 -36 17 -79 25 -94 21
-41 79 -103 143 -152 50 -38 56 -48 69 -101 8 -33 15 -104 16 -159 1 -78 6
-111 23 -149 l22 -48 -23 14 c-325 211 -698 384 -930 432 -39 8 -73 13 -75 11
-2 -2 47 -19 109 -39 137 -45 158 -55 109 -56 -47 0 -143 -25 -205 -54 -75
-35 -149 -98 -203 -174 l-48 -69 -24 39 c-33 53 -121 135 -162 153 -19 7 -59
17 -89 21 -45 6 -62 14 -105 53 -32 30 -77 57 -123 75 -51 20 -79 38 -99 63
-124 161 -155 193 -176 187 -18 -6 -19 -5 -8 9 12 14 7 22 -30 63 -56 61 -150
127 -216 151 l-54 20 59 53 c82 75 212 174 371 283 131 90 313 185 465 242 70
26 382 98 514 119 91 14 443 19 498 7z m215 -256 c0 -8 -9 -15 -20 -15 -11 0
-20 7 -20 15 0 8 9 15 20 15 11 0 20 -7 20 -15z m155 -3 c0 -18 -20 -15 -23 4
-3 10 1 15 10 12 7 -3 13 -10 13 -16z m-51 -48 c20 -8 21 -40 1 -48 -14 -5
-45 17 -45 33 0 19 18 25 44 15z m-120 -19 c3 -9 -1 -18 -9 -21 -18 -7 -47 14
-39 27 9 15 41 10 48 -6z m397 -13 c30 -15 89 -51 132 -80 42 -29 77 -51 77
-49 0 3 -26 24 -57 48 -87 65 -90 69 -54 69 16 0 33 -5 36 -10 4 -7 24 -8 52
-4 38 6 49 4 62 -13 9 -10 48 -29 88 -41 l72 -23 -6 -34 c-11 -66 30 -103 150
-135 43 -11 95 -31 116 -44 56 -36 192 -102 225 -110 19 -5 36 -2 52 9 43 28
27 87 -48 178 l-39 47 33 0 c18 0 69 -16 113 -36 44 -19 121 -51 170 -70 50
-19 106 -44 126 -54 20 -11 44 -20 52 -20 32 0 67 -23 62 -40 -3 -10 9 -29 32
-51 47 -44 123 -100 105 -77 -26 32 13 54 39 22 11 -14 10 -18 -6 -30 -10 -8
-15 -14 -9 -14 5 0 10 -21 11 -47 1 -38 7 -53 28 -71 24 -20 36 -22 113 -20
49 1 114 -4 147 -12 33 -8 90 -14 127 -14 65 -1 68 0 108 39 22 21 39 44 37
51 -3 15 50 64 69 64 9 0 18 -9 21 -20 4 -15 14 -20 37 -20 35 0 127 -42 147
-67 12 -13 7 -21 -31 -56 l-45 -40 49 28 c44 25 50 26 58 11 7 -13 13 -14 30
-5 16 9 24 8 35 -4 18 -18 10 -35 -23 -47 -13 -5 -24 -17 -24 -26 0 -9 -9 -32
-21 -50 -17 -28 -18 -34 -5 -34 22 0 30 -19 15 -36 -7 -9 -25 -14 -43 -13 -17
2 -42 -4 -56 -13 -14 -9 -47 -27 -75 -42 -27 -14 -44 -25 -37 -26 6 0 12 -9
12 -20 0 -15 -7 -20 -25 -20 -15 0 -25 -6 -25 -14 0 -19 -39 -31 -53 -17 -14
14 9 41 34 41 11 0 19 5 19 10 0 13 -6 13 -65 -6 -29 -9 -105 -18 -185 -21
-99 -4 -137 -9 -143 -19 -11 -18 -31 -18 -69 2 -28 14 -49 15 -177 5 -129 -9
-148 -13 -160 -31 -16 -23 -46 -26 -58 -6 -5 9 -43 18 -107 26 -111 13 -237
51 -354 106 -42 20 -90 36 -105 35 -21 -1 -32 6 -44 27 -35 61 -415 305 -445
286 -6 -4 -8 -3 -5 3 7 11 -263 136 -303 139 -14 1 -31 3 -38 3 -7 1 -17 12
-22 26 -11 28 -56 53 -85 48 -16 -3 -17 -2 -6 6 13 8 11 13 -10 30 -13 11 -36
25 -50 31 -15 6 -32 22 -39 36 -8 15 -20 22 -29 19 -27 -8 -44 10 -37 38 8 33
-2 57 -23 57 -20 0 -41 19 -41 37 0 8 12 13 31 13 20 0 29 4 26 13 -2 6 0 22
4 35 6 16 5 22 -5 22 -13 0 -26 20 -26 41 0 16 50 10 57 -7 5 -13 10 -11 32 9
46 43 78 58 143 66 34 5 66 9 69 10 3 0 30 -12 60 -27z m2339 -36 c0 -8 -4
-17 -9 -21 -12 -7 -24 12 -16 25 9 15 25 12 25 -4z m-1720 -17 c0 -11 -27 -12
-34 0 -3 4 -3 11 0 14 8 8 34 -3 34 -14z m-222 -7 c3 -9 -3 -13 -19 -10 -12 1
-24 9 -27 16 -3 9 3 13 19 10 12 -1 24 -9 27 -16z m80 0 c3 -9 -3 -13 -19 -10
-12 1 -24 9 -27 16 -3 9 3 13 19 10 12 -1 24 -9 27 -16z m-943 -22 c0 -22 -29
-18 -33 3 -3 14 1 18 15 15 10 -2 18 -10 18 -18z m2907 -12 c-15 -15 -26 -4
-18 18 5 13 9 15 18 6 9 -9 9 -15 0 -24z m-2897 -38 c0 -8 -10 -16 -22 -18
-18 -3 -23 2 -23 18 0 16 5 21 23 18 12 -2 22 -10 22 -18z m2765 -35 c0 -14
-4 -25 -10 -25 -5 0 -10 11 -10 25 0 14 5 25 10 25 6 0 10 -11 10 -25z m-1485
5 c3 -5 2 -10 -4 -10 -5 0 -13 5 -16 10 -3 6 -2 10 4 10 5 0 13 -4 16 -10z
m1720 -9 c3 -5 1 -12 -5 -16 -5 -3 -10 1 -10 9 0 18 6 21 15 7z m-95 -41 c0
-5 -4 -10 -10 -10 -5 0 -10 5 -10 10 0 6 5 10 10 10 6 0 10 -4 10 -10z m-189
-93 c-13 -13 -26 -3 -16 12 3 6 11 8 17 5 6 -4 6 -10 -1 -17z m104 -17 c0 -7
-6 -15 -12 -17 -8 -3 -13 4 -13 17 0 13 5 20 13 18 6 -3 12 -11 12 -18z m235
1 c0 -6 -4 -13 -10 -16 -5 -3 -10 1 -10 9 0 9 5 16 10 16 6 0 10 -4 10 -9z
m-55 -20 c3 -5 -3 -17 -12 -27 -11 -11 -18 -13 -21 -5 -9 28 18 55 33 32z
m-100 -81 c8 -13 -13 -40 -31 -40 -17 0 -18 22 -2 38 15 15 25 15 33 2z m-897
-18 c3 -9 -3 -13 -19 -10 -12 1 -24 9 -27 16 -3 9 3 13 19 10 12 -1 24 -9 27
-16z m752 9 c0 -12 -28 -22 -34 -12 -3 5 -3 11 1 15 9 9 33 7 33 -3z m410 -1
c0 -5 -5 -10 -11 -10 -5 0 -7 5 -4 10 3 6 8 10 11 10 2 0 4 -4 4 -10z m-64
-42 c4 -6 -3 -20 -17 -31 -22 -17 -24 -18 -27 -3 -8 38 26 64 44 34z m-976
-18 c0 -5 -9 -10 -20 -10 -11 0 -20 5 -20 10 0 6 9 10 20 10 11 0 20 -4 20
-10z m513 -31 c-6 -6 -19 -9 -29 -7 -17 3 -17 4 1 21 12 13 21 15 28 8 8 -8 8
-14 0 -22z m152 -15 c0 -22 -32 -31 -49 -14 -8 8 -6 15 9 26 24 18 40 13 40
-12z m395 -24 c0 -11 -7 -20 -15 -20 -15 0 -21 21 -8 33 12 13 23 7 23 -13z
m-250 -8 c0 -23 -19 -42 -42 -42 -20 0 -23 12 -8 41 14 24 50 25 50 1z m100
-37 c0 -9 -9 -15 -25 -15 -26 0 -34 15 -12 23 23 10 37 7 37 -8z m59 -61 c-14
-18 -24 -11 -15 11 3 9 11 13 16 10 8 -5 7 -11 -1 -21z m-4949 -29 c0 -8 -4
-15 -10 -15 -5 0 -10 7 -10 15 0 8 5 15 10 15 6 0 10 -7 10 -15z m90 -5 c0 -5
-4 -10 -10 -10 -5 0 -10 5 -10 10 0 6 5 10 10 10 6 0 10 -4 10 -10z m2657 -26
c2 -7 -6 -10 -21 -7 -14 3 -23 10 -20 15 8 12 36 6 41 -8z m-2597 -14 c0 -5
-2 -10 -4 -10 -3 0 -8 5 -11 10 -3 6 -1 10 4 10 6 0 11 -4 11 -10z m-150 -80
c0 -5 -4 -10 -10 -10 -5 0 -10 5 -10 10 0 6 5 10 10 10 6 0 10 -4 10 -10z
m4940 0 c0 -5 -7 -10 -16 -10 -8 0 -12 5 -9 10 3 6 10 10 16 10 5 0 9 -4 9
-10z m-4860 -4 c0 -11 -19 -15 -25 -6 -3 5 1 10 9 10 9 0 16 -2 16 -4z m-338
-51 c-12 -22 -27 -2 -18 22 5 12 10 13 17 6 7 -7 8 -17 1 -28z m0 -39 c31 -16
50 -21 61 -15 17 10 37 -14 37 -45 0 -19 74 -70 140 -98 38 -16 52 -27 56 -47
4 -14 12 -35 19 -46 7 -12 20 -50 29 -85 31 -119 88 -195 183 -242 l65 -32 90
15 c89 15 91 15 134 -8 44 -24 89 -29 112 -14 20 12 -6 58 -57 99 -53 42 -126
181 -88 166 8 -3 18 -1 22 5 10 17 33 13 39 -6 6 -17 39 -33 231 -109 118 -46
182 -82 204 -113 12 -16 31 -31 43 -33 25 -4 37 -28 14 -28 -23 0 -20 -27 4
-40 12 -6 20 -21 20 -37 0 -24 -2 -25 -44 -21 -25 3 -72 20 -105 37 -133 69
-224 44 -157 -43 23 -31 139 -106 186 -121 14 -4 41 -18 60 -31 79 -52 237
-72 303 -38 27 14 40 15 96 5 85 -16 123 -38 110 -63 -15 -28 -74 -48 -178
-59 -112 -11 -344 -3 -451 17 -41 8 -91 14 -111 14 -42 0 -229 57 -344 105
-44 19 -92 36 -107 40 -16 3 -28 11 -28 18 -1 11 -116 88 -194 128 -17 10 -42
31 -54 49 l-24 32 56 -36 c31 -19 73 -46 94 -60 47 -29 202 -108 202 -102 0 2
-35 23 -77 47 -170 93 -391 255 -481 354 -81 88 -151 221 -182 344 -9 33 -14
41 -21 30 -13 -20 -12 47 1 72 14 25 38 24 92 -5z m1700 -16 c-2 -8 -7 -111
-11 -229 -7 -185 -12 -224 -31 -274 -12 -31 -31 -62 -42 -68 -69 -37 -330 78
-431 191 -36 39 -36 39 -22 80 19 55 63 116 121 171 89 82 186 125 317 139 88
9 103 8 99 -10z m-1482 -21 c0 -24 -23 -21 -28 4 -2 10 3 17 12 17 10 0 16 -9
16 -21z m1705 -64 c167 -80 279 -144 467 -266 148 -96 144 -88 136 -252 -6
-119 -45 -254 -111 -382 -52 -101 -162 -213 -302 -307 -105 -71 -215 -125
-215 -107 0 6 39 48 86 92 105 101 145 166 151 250 3 34 0 80 -5 101 -10 33
-8 49 10 100 l21 61 -22 74 c-19 61 -31 82 -74 125 -47 47 -63 56 -163 88 -60
20 -131 39 -157 43 l-47 7 5 122 c14 341 14 341 49 330 11 -4 89 -39 171 -79z
m-1558 49 c-9 -9 -28 6 -21 18 4 6 10 6 17 -1 6 -6 8 -13 4 -17z m-69 -23 c3
-8 -1 -12 -9 -9 -7 2 -15 10 -17 17 -3 8 1 12 9 9 7 -2 15 -10 17 -17z m4672
-61 c0 -5 -9 -10 -21 -10 -11 0 -17 5 -14 10 3 6 13 10 21 10 8 0 14 -4 14
-10z m-4415 -20 c3 -5 -1 -10 -9 -10 -9 0 -16 5 -16 10 0 6 4 10 9 10 6 0 13
-4 16 -10z m3122 -36 c-3 -3 -12 -4 -19 -1 -8 3 -5 6 6 6 11 1 17 -2 13 -5z
m863 -9 c0 -16 -35 -21 -44 -6 -8 12 4 21 26 21 10 0 18 -7 18 -15z m100 6 c0
-14 -18 -23 -30 -16 -6 4 -8 11 -5 16 8 12 35 12 35 0z m-522 -38 c2 -8 -5
-13 -17 -13 -12 0 -21 6 -21 16 0 18 31 15 38 -3z m-4184 -31 c8 -13 -11 -35
-23 -28 -16 10 -14 36 3 36 8 0 17 -4 20 -8z m815 -28 c3 -16 1 -17 -13 -5
-19 16 -21 34 -3 29 6 -3 14 -13 16 -24z m-735 -140 c4 -11 1 -14 -11 -12 -9
2 -18 9 -21 16 -6 18 25 15 32 -4z m1096 -10 c0 -8 -4 -12 -10 -9 -5 3 -10 10
-10 16 0 5 5 9 10 9 6 0 10 -7 10 -16z m1477 -36 c21 -12 40 -23 42 -25 2 -1
-2 -9 -8 -17 -7 -8 -26 -45 -42 -83 l-30 -68 6 55 c3 30 2 79 -3 108 -5 28 -8
52 -6 52 2 0 20 -10 41 -22z m-2097 -339 c0 -5 -9 -9 -20 -9 -19 0 -27 20 -13
33 7 8 33 -11 33 -24z m281 -134 c-1 -15 -24 -12 -29 3 -3 9 2 13 12 10 10 -1
17 -7 17 -13z m169 -85 c0 -5 -4 -10 -10 -10 -5 0 -10 5 -10 10 0 6 5 10 10
10 6 0 10 -4 10 -10z m1760 -161 c0 -5 -7 -9 -15 -9 -15 0 -20 12 -9 23 8 8
24 -1 24 -14z m-30 -78 c0 -5 -7 -11 -15 -15 -15 -5 -20 5 -8 17 9 10 23 9 23
-2z m770 -11 c0 -5 -4 -10 -10 -10 -5 0 -10 5 -10 10 0 6 5 10 10 10 6 0 10
-4 10 -10z m-760 -45 c-7 -8 -16 -15 -21 -15 -13 0 -11 24 3 38 18 18 35 -3
18 -23z m50 -383 c0 -7 5 -10 10 -7 9 5 12 -1 9 -21 0 -4 4 -10 9 -13 5 -3 13
-17 17 -31 10 -33 3 -26 -45 48 -27 43 -33 58 -20 50 11 -7 20 -19 20 -26z
m716 1 c3 -16 10 -45 16 -66 16 -64 -15 -227 -43 -227 -5 0 -9 -10 -9 -22 0
-17 -3 -19 -9 -10 -7 11 -9 11 -14 -2 -4 -9 -14 -16 -23 -16 -13 0 -14 3 -4
15 10 12 9 15 -4 15 -9 0 -19 -7 -23 -16 -7 -19 15 -36 37 -28 11 4 10 0 -3
-13 -15 -15 -36 -18 -125 -19 -59 -1 -132 -5 -163 -9 -149 -19 -251 85 -275
280 l-6 50 42 -48 c23 -26 46 -45 51 -41 5 3 9 -12 10 -33 l1 -38 14 32 c7 17
18 35 24 38 13 8 39 -22 40 -45 0 -8 21 -30 46 -49 31 -24 42 -37 34 -45 -17
-17 -11 -55 9 -66 42 -22 91 -6 91 30 0 8 28 29 65 49 41 21 80 51 106 82 22
27 44 49 49 49 4 0 11 -15 15 -32 12 -51 18 -7 7 52 -8 46 -5 87 14 148 6 21
23 13 30 -15z m-321 -333 c11 -18 -26 -23 -43 -6 -15 15 -14 16 10 16 15 0 30
-5 33 -10z m141 -92 c-26 -14 -147 -21 -186 -11 -33 9 -29 11 45 17 44 4 84 9
89 10 5 1 23 0 39 -2 24 -4 27 -6 13 -14z"/>
<path d="M3942 2430 c-66 -41 -75 -127 -19 -177 32 -28 145 -89 190 -101 108
-30 206 79 164 180 -20 48 -58 71 -147 91 -131 29 -152 30 -188 7z"/>
<path d="M3468 170 c-19 -15 -20 -20 -9 -34 16 -19 67 -21 74 -3 14 41 -29 66
-65 37z m52 -20 c0 -5 -9 -10 -20 -10 -11 0 -20 5 -20 10 0 6 9 10 20 10 11 0
20 -4 20 -10z"/>
<path d="M3125 140 c3 -5 8 -10 11 -10 2 0 4 5 4 10 0 6 -5 10 -11 10 -5 0 -7
-4 -4 -10z"/>
<path d="M3236 126 c4 -11 1 -16 -10 -16 -9 0 -16 5 -16 10 0 6 -4 10 -10 10
-5 0 -10 -6 -10 -14 0 -22 39 -31 57 -14 12 13 12 16 -2 28 -13 11 -15 10 -9
-4z"/>
</g>
</svg>
